<mxfile host="app.diagrams.net" agent="Mozilla/5.0 (Windows NT 10.0; Win64; x64) AppleWebKit/537.36 (KHTML, like Gecko) Chrome/127.0.0.0 Safari/537.36" version="24.7.12">
  <diagram name="페이지-1" id="HxRX1ChXg0X8g455WpD5">
    <mxGraphModel dx="724" dy="384" grid="1" gridSize="10" guides="1" tooltips="1" connect="1" arrows="1" fold="1" page="1" pageScale="1" pageWidth="827" pageHeight="1169" math="0" shadow="0">
      <root>
        <mxCell id="0" />
        <mxCell id="1" parent="0" />
        <mxCell id="x6l328V-i_3p-X5pdAfV-1" value="Product" style="swimlane;fontStyle=1;align=center;verticalAlign=top;childLayout=stackLayout;horizontal=1;startSize=26;horizontalStack=0;resizeParent=1;resizeParentMax=0;resizeLast=0;collapsible=1;marginBottom=0;whiteSpace=wrap;html=1;fillColor=#ffe6cc;strokeColor=#d79b00;rounded=1;shadow=1;glass=0;" vertex="1" parent="1">
          <mxGeometry x="60" y="60" width="280" height="194" as="geometry" />
        </mxCell>
        <mxCell id="x6l328V-i_3p-X5pdAfV-2" value="- productId: String" style="text;strokeColor=none;fillColor=none;align=left;verticalAlign=top;spacingLeft=4;spacingRight=4;overflow=hidden;rotatable=0;points=[[0,0.5],[1,0.5]];portConstraint=eastwest;whiteSpace=wrap;html=1;" vertex="1" parent="x6l328V-i_3p-X5pdAfV-1">
          <mxGeometry y="26" width="280" height="34" as="geometry" />
        </mxCell>
        <mxCell id="x6l328V-i_3p-X5pdAfV-5" value="- price: int" style="text;strokeColor=none;fillColor=none;align=left;verticalAlign=top;spacingLeft=4;spacingRight=4;overflow=hidden;rotatable=0;points=[[0,0.5],[1,0.5]];portConstraint=eastwest;whiteSpace=wrap;html=1;" vertex="1" parent="x6l328V-i_3p-X5pdAfV-1">
          <mxGeometry y="60" width="280" height="30" as="geometry" />
        </mxCell>
        <mxCell id="x6l328V-i_3p-X5pdAfV-3" value="" style="line;strokeWidth=1;fillColor=none;align=left;verticalAlign=middle;spacingTop=-1;spacingLeft=3;spacingRight=3;rotatable=0;labelPosition=right;points=[];portConstraint=eastwest;strokeColor=inherit;" vertex="1" parent="x6l328V-i_3p-X5pdAfV-1">
          <mxGeometry y="90" width="280" height="8" as="geometry" />
        </mxCell>
        <mxCell id="x6l328V-i_3p-X5pdAfV-4" value="+ addProduct(productId:String)" style="text;strokeColor=none;fillColor=none;align=left;verticalAlign=top;spacingLeft=4;spacingRight=4;overflow=hidden;rotatable=0;points=[[0,0.5],[1,0.5]];portConstraint=eastwest;whiteSpace=wrap;html=1;" vertex="1" parent="x6l328V-i_3p-X5pdAfV-1">
          <mxGeometry y="98" width="280" height="32" as="geometry" />
        </mxCell>
        <mxCell id="x6l328V-i_3p-X5pdAfV-7" value="+ deleteProduct(productId:String):boolean" style="text;strokeColor=none;fillColor=none;align=left;verticalAlign=top;spacingLeft=4;spacingRight=4;overflow=hidden;rotatable=0;points=[[0,0.5],[1,0.5]];portConstraint=eastwest;whiteSpace=wrap;html=1;" vertex="1" parent="x6l328V-i_3p-X5pdAfV-1">
          <mxGeometry y="130" width="280" height="32" as="geometry" />
        </mxCell>
        <mxCell id="x6l328V-i_3p-X5pdAfV-8" value="+ checkProduct(productId:String):boolean" style="text;strokeColor=none;fillColor=none;align=left;verticalAlign=top;spacingLeft=4;spacingRight=4;overflow=hidden;rotatable=0;points=[[0,0.5],[1,0.5]];portConstraint=eastwest;whiteSpace=wrap;html=1;" vertex="1" parent="x6l328V-i_3p-X5pdAfV-1">
          <mxGeometry y="162" width="280" height="32" as="geometry" />
        </mxCell>
        <mxCell id="x6l328V-i_3p-X5pdAfV-10" value="ShoppingCart" style="swimlane;fontStyle=1;align=center;verticalAlign=top;childLayout=stackLayout;horizontal=1;startSize=26;horizontalStack=0;resizeParent=1;resizeParentMax=0;resizeLast=0;collapsible=1;marginBottom=0;whiteSpace=wrap;html=1;fillColor=#e1d5e7;strokeColor=#9673a6;rounded=1;shadow=1;" vertex="1" parent="1">
          <mxGeometry x="453" y="100" width="190" height="86" as="geometry" />
        </mxCell>
        <mxCell id="x6l328V-i_3p-X5pdAfV-11" value="+ cartId: String" style="text;strokeColor=none;fillColor=none;align=left;verticalAlign=top;spacingLeft=4;spacingRight=4;overflow=hidden;rotatable=0;points=[[0,0.5],[1,0.5]];portConstraint=eastwest;whiteSpace=wrap;html=1;" vertex="1" parent="x6l328V-i_3p-X5pdAfV-10">
          <mxGeometry y="26" width="190" height="26" as="geometry" />
        </mxCell>
        <mxCell id="x6l328V-i_3p-X5pdAfV-15" value="" style="endArrow=none;html=1;edgeStyle=orthogonalEdgeStyle;rounded=0;" edge="1" parent="x6l328V-i_3p-X5pdAfV-10">
          <mxGeometry relative="1" as="geometry">
            <mxPoint x="-112" y="52" as="sourcePoint" />
            <mxPoint x="-2" y="52" as="targetPoint" />
          </mxGeometry>
        </mxCell>
        <mxCell id="x6l328V-i_3p-X5pdAfV-16" value="1..*" style="edgeLabel;resizable=0;html=1;align=left;verticalAlign=bottom;" connectable="0" vertex="1" parent="x6l328V-i_3p-X5pdAfV-15">
          <mxGeometry x="-1" relative="1" as="geometry">
            <mxPoint x="3" as="offset" />
          </mxGeometry>
        </mxCell>
        <mxCell id="x6l328V-i_3p-X5pdAfV-17" value="1" style="edgeLabel;resizable=0;html=1;align=right;verticalAlign=bottom;" connectable="0" vertex="1" parent="x6l328V-i_3p-X5pdAfV-15">
          <mxGeometry x="1" relative="1" as="geometry">
            <mxPoint x="-4" as="offset" />
          </mxGeometry>
        </mxCell>
        <mxCell id="x6l328V-i_3p-X5pdAfV-12" value="" style="line;strokeWidth=1;fillColor=none;align=left;verticalAlign=middle;spacingTop=-1;spacingLeft=3;spacingRight=3;rotatable=0;labelPosition=right;points=[];portConstraint=eastwest;strokeColor=inherit;" vertex="1" parent="x6l328V-i_3p-X5pdAfV-10">
          <mxGeometry y="52" width="190" height="8" as="geometry" />
        </mxCell>
        <mxCell id="x6l328V-i_3p-X5pdAfV-13" value="+ getItem(): int" style="text;strokeColor=none;fillColor=none;align=left;verticalAlign=top;spacingLeft=4;spacingRight=4;overflow=hidden;rotatable=0;points=[[0,0.5],[1,0.5]];portConstraint=eastwest;whiteSpace=wrap;html=1;" vertex="1" parent="x6l328V-i_3p-X5pdAfV-10">
          <mxGeometry y="60" width="190" height="26" as="geometry" />
        </mxCell>
        <mxCell id="x6l328V-i_3p-X5pdAfV-18" value="임시주문" style="text;html=1;align=center;verticalAlign=middle;resizable=0;points=[];autosize=1;fontColor=#4F67FF;" vertex="1" parent="1">
          <mxGeometry x="360" y="128" width="70" height="30" as="geometry" />
        </mxCell>
      </root>
    </mxGraphModel>
  </diagram>
</mxfile>
